<?xml version="1.0" encoding="UTF-8"?>
<svg xmlns="http://www.w3.org/2000/svg" xmlns:xlink="http://www.w3.org/1999/xlink" width="208.5pt" height="37.0311pt" viewBox="0 0 208.5 37.0311" version="1.1">
<g id="surface1">
<path style=" stroke:none;fill-rule:nonzero;fill:rgb(13.725281%,12.156677%,12.548828%);fill-opacity:1;" d="M 76.421875 31 L 76.804688 31 L 76.804688 6.03125 L 76.421875 6.03125 Z M 76.421875 31 "/>
<path style=" stroke:none;fill-rule:nonzero;fill:rgb(13.725281%,12.156677%,12.548828%);fill-opacity:1;" d="M 39.570313 8.699219 C 40 7.574219 41.421875 7.574219 42.5625 7.574219 L 42.773438 7.574219 L 42.773438 6.023438 C 42.773438 6.023438 38.328125 6.121094 36.96875 6.121094 C 35.570313 6.121094 31.417969 6.023438 31.417969 6.023438 L 31.417969 7.574219 L 31.628906 7.574219 C 32.769531 7.574219 34.191406 7.574219 34.617188 8.699219 C 34.976563 9.660156 34.976563 12.390625 34.976563 13.550781 L 34.976563 23.457031 C 34.976563 24.625 34.976563 27.351563 34.617188 28.3125 C 34.191406 29.4375 32.769531 29.4375 31.628906 29.4375 L 31.417969 29.4375 L 31.417969 30.988281 C 31.417969 30.984375 35.011719 30.835938 36.976563 30.835938 C 39.242188 30.835938 42.773438 30.988281 42.773438 30.988281 L 42.773438 29.4375 L 42.5625 29.4375 C 41.421875 29.4375 40 29.4375 39.574219 28.316406 C 39.214844 27.351563 39.214844 24.625 39.214844 23.457031 L 39.214844 13.550781 C 39.214844 12.390625 39.214844 9.660156 39.570313 8.699219 "/>
<path style=" stroke:none;fill-rule:nonzero;fill:rgb(13.725281%,12.156677%,12.548828%);fill-opacity:1;" d="M 46.144531 6.046875 L 46.144531 12.523438 L 47.683594 12.523438 L 47.691406 12.320313 C 47.832031 8.105469 49.441406 7.929688 53.074219 7.929688 C 53.199219 7.929688 53.324219 7.929688 53.449219 7.929688 C 54.351563 7.921875 55.203125 7.917969 55.539063 8.25 C 55.648438 8.359375 55.703125 8.515625 55.703125 8.71875 L 55.703125 25.738281 C 55.703125 28.265625 55.351563 29.308594 51.792969 29.457031 L 51.589844 29.464844 L 51.589844 31.007813 C 51.589844 31.007813 55.738281 30.855469 58.136719 30.855469 C 59.96875 30.855469 64.058594 31.007813 64.058594 31.007813 L 64.058594 29.464844 L 63.855469 29.457031 C 60.296875 29.308594 59.945313 28.265625 59.945313 25.738281 L 59.945313 8.71875 C 59.945313 8.542969 59.996094 8.40625 60.105469 8.296875 C 60.515625 7.894531 61.648438 7.910156 62.554688 7.921875 C 62.726563 7.925781 62.894531 7.929688 63.054688 7.929688 C 66.605469 7.929688 67.753906 8.957031 67.960938 12.324219 L 67.972656 12.523438 L 69.5 12.523438 L 69.5 6.046875 C 69.5 6.046875 60.539063 6.109375 57.820313 6.109375 C 55.105469 6.109375 46.144531 6.046875 46.144531 6.046875 "/>
<path style=" stroke:none;fill-rule:nonzero;fill:rgb(13.725281%,12.156677%,12.548828%);fill-opacity:1;" d="M 11.105469 17.871094 C 11.105469 17.871094 11.101563 8.859375 11.101563 8.804688 C 11.097656 8.445313 11.085938 7.953125 11.386719 7.816406 C 11.59375 7.722656 13.601563 7.796875 13.710938 7.796875 C 16.871094 7.796875 18.6875 9.648438 18.6875 12.871094 C 18.6875 15.222656 18.0625 16.570313 16.660156 17.246094 C 15.355469 17.878906 11.105469 17.871094 11.105469 17.871094 M 27.972656 29.4375 C 26.179688 29.15625 25.644531 28.953125 24.46875 27.59375 L 17.097656 19.128906 C 20.976563 18.625 23.371094 16.058594 23.371094 12.351563 C 23.371094 9.941406 22.4375 8.199219 20.601563 7.179688 C 19.207031 6.402344 17.265625 6.027344 14.667969 6.027344 C 13.890625 6.046875 12.019531 6.109375 9.957031 6.109375 C 7.820313 6.109375 3.382813 6.023438 3.382813 6.023438 L 3.382813 7.574219 L 3.691406 7.574219 C 4.867188 7.566406 6.191406 7.574219 6.542969 8.691406 C 6.863281 9.65625 6.863281 12.382813 6.863281 13.28125 L 6.863281 23.457031 C 6.863281 24.582031 6.863281 26.289063 6.714844 27.457031 C 6.671875 27.800781 6.613281 28.101563 6.542969 28.320313 C 6.179688 29.4375 4.746094 29.4375 3.59375 29.4375 L 3.382813 29.4375 L 3.382813 30.988281 C 3.382813 30.988281 6.835938 30.832031 9.148438 30.832031 C 11.132813 30.832031 14.585938 30.984375 14.585938 30.988281 L 14.585938 29.4375 L 14.28125 29.4375 C 13.125 29.441406 11.808594 29.4375 11.425781 28.320313 C 11.351563 28.097656 11.296875 27.796875 11.253906 27.457031 C 11.105469 26.296875 11.105469 24.636719 11.105469 23.730469 L 11.105469 19.570313 C 12.484375 19.582031 12.601563 19.726563 13.3125 20.582031 C 13.445313 20.742188 13.59375 20.921875 13.765625 21.121094 L 19.917969 28.753906 L 21.726563 30.988281 C 21.726563 30.988281 23.710938 30.902344 24.675781 30.902344 C 26.078125 30.902344 28.152344 30.988281 28.152344 30.988281 L 28.152344 29.464844 Z M 27.972656 29.4375 "/>
<path style=" stroke:none;fill-rule:nonzero;fill:rgb(13.725281%,12.156677%,12.548828%);fill-opacity:1;" d="M 39.570313 8.699219 C 40 7.574219 41.421875 7.574219 42.5625 7.574219 L 42.773438 7.574219 L 42.773438 6.023438 C 42.773438 6.023438 38.328125 6.121094 36.96875 6.121094 C 35.570313 6.121094 31.417969 6.023438 31.417969 6.023438 L 31.417969 7.574219 L 31.628906 7.574219 C 32.769531 7.574219 34.191406 7.574219 34.617188 8.699219 C 34.976563 9.660156 34.976563 12.390625 34.976563 13.550781 L 34.976563 23.457031 C 34.976563 24.625 34.976563 27.351563 34.617188 28.3125 C 34.191406 29.4375 32.769531 29.4375 31.628906 29.4375 L 31.417969 29.4375 L 31.417969 30.988281 C 31.417969 30.984375 35.011719 30.835938 36.976563 30.835938 C 39.242188 30.835938 42.773438 30.988281 42.773438 30.988281 L 42.773438 29.4375 L 42.5625 29.4375 C 41.421875 29.4375 40 29.4375 39.574219 28.316406 C 39.214844 27.351563 39.214844 24.625 39.214844 23.457031 L 39.214844 13.550781 C 39.214844 12.390625 39.214844 9.660156 39.570313 8.699219 "/>
<path style=" stroke:none;fill-rule:nonzero;fill:rgb(13.725281%,12.156677%,12.548828%);fill-opacity:1;" d="M 46.144531 6.046875 L 46.144531 12.523438 L 47.683594 12.523438 L 47.691406 12.320313 C 47.832031 8.105469 49.441406 7.929688 53.074219 7.929688 C 53.199219 7.929688 53.324219 7.929688 53.449219 7.929688 C 54.351563 7.921875 55.203125 7.917969 55.539063 8.25 C 55.648438 8.359375 55.703125 8.515625 55.703125 8.71875 L 55.703125 25.738281 C 55.703125 28.265625 55.351563 29.308594 51.792969 29.457031 L 51.589844 29.464844 L 51.589844 31.007813 C 51.589844 31.007813 55.738281 30.855469 58.136719 30.855469 C 59.96875 30.855469 64.058594 31.007813 64.058594 31.007813 L 64.058594 29.464844 L 63.855469 29.457031 C 60.296875 29.308594 59.945313 28.265625 59.945313 25.738281 L 59.945313 8.71875 C 59.945313 8.542969 59.996094 8.40625 60.105469 8.296875 C 60.515625 7.894531 61.648438 7.910156 62.554688 7.921875 C 62.726563 7.925781 62.894531 7.929688 63.054688 7.929688 C 66.605469 7.929688 67.753906 8.957031 67.960938 12.324219 L 67.972656 12.523438 L 69.5 12.523438 L 69.5 6.046875 C 69.5 6.046875 60.539063 6.109375 57.820313 6.109375 C 55.105469 6.109375 46.144531 6.046875 46.144531 6.046875 "/>
<path style=" stroke:none;fill-rule:nonzero;fill:rgb(13.725281%,12.156677%,12.548828%);fill-opacity:1;" d="M 11.105469 17.871094 C 11.105469 17.871094 11.101563 8.859375 11.101563 8.804688 C 11.097656 8.445313 11.085938 7.953125 11.386719 7.816406 C 11.59375 7.722656 13.601563 7.796875 13.710938 7.796875 C 16.871094 7.796875 18.6875 9.648438 18.6875 12.871094 C 18.6875 15.222656 18.0625 16.570313 16.660156 17.246094 C 15.355469 17.878906 11.105469 17.871094 11.105469 17.871094 M 27.972656 29.4375 C 26.179688 29.15625 25.644531 28.953125 24.46875 27.59375 L 17.097656 19.128906 C 20.976563 18.625 23.371094 16.058594 23.371094 12.351563 C 23.371094 9.941406 22.4375 8.199219 20.601563 7.179688 C 19.207031 6.402344 17.265625 6.027344 14.667969 6.027344 C 13.890625 6.046875 12.019531 6.109375 9.957031 6.109375 C 7.820313 6.109375 3.382813 6.023438 3.382813 6.023438 L 3.382813 7.574219 L 3.691406 7.574219 C 4.867188 7.566406 6.191406 7.574219 6.542969 8.691406 C 6.863281 9.65625 6.863281 12.382813 6.863281 13.28125 L 6.863281 23.457031 C 6.863281 24.582031 6.863281 26.289063 6.714844 27.457031 C 6.671875 27.800781 6.613281 28.101563 6.542969 28.320313 C 6.179688 29.4375 4.746094 29.4375 3.59375 29.4375 L 3.382813 29.4375 L 3.382813 30.988281 C 3.382813 30.988281 6.835938 30.832031 9.148438 30.832031 C 11.132813 30.832031 14.585938 30.984375 14.585938 30.988281 L 14.585938 29.4375 L 14.28125 29.4375 C 13.125 29.441406 11.808594 29.4375 11.425781 28.320313 C 11.351563 28.097656 11.296875 27.796875 11.253906 27.457031 C 11.105469 26.296875 11.105469 24.636719 11.105469 23.730469 L 11.105469 19.570313 C 12.484375 19.582031 12.601563 19.726563 13.3125 20.582031 C 13.445313 20.742188 13.59375 20.921875 13.765625 21.121094 L 19.917969 28.753906 L 21.726563 30.988281 C 21.726563 30.988281 23.710938 30.902344 24.675781 30.902344 C 26.078125 30.902344 28.152344 30.988281 28.152344 30.988281 L 28.152344 29.464844 Z M 27.972656 29.4375 "/>
<path style=" stroke:none;fill-rule:nonzero;fill:rgb(13.725281%,12.156677%,12.548828%);fill-opacity:1;" d="M 85.898438 10.6875 L 88.085938 10.6875 C 89.195313 10.6875 89.78125 10.175781 89.78125 9.253906 C 89.78125 8.304688 89.167969 7.839844 88.117188 7.839844 L 85.898438 7.839844 Z M 87.621094 12.410156 L 85.898438 12.410156 L 85.898438 16.4375 L 83.707031 16.4375 L 83.707031 6 L 88.292969 6 C 89.503906 6 90.410156 6.351563 91.023438 6.976563 C 91.605469 7.578125 91.957031 8.304688 91.957031 9.242188 C 91.957031 10.703125 91.195313 11.722656 89.882813 12.160156 L 92.496094 16.4375 L 90.042969 16.4375 Z M 87.621094 12.410156 "/>
<path style=" stroke:none;fill-rule:nonzero;fill:rgb(13.725281%,12.156677%,12.548828%);fill-opacity:1;" d="M 98.261719 12.699219 C 98.261719 11.242188 97.578125 10.246094 96.363281 10.246094 C 95.140625 10.246094 94.464844 11.242188 94.464844 12.699219 C 94.464844 14.160156 95.140625 15.140625 96.363281 15.140625 C 97.578125 15.140625 98.261719 14.160156 98.261719 12.699219 M 92.453125 12.699219 C 92.453125 10.46875 94.042969 8.746094 96.363281 8.746094 C 98.6875 8.746094 100.277344 10.46875 100.277344 12.699219 C 100.277344 14.933594 98.6875 16.65625 96.363281 16.65625 C 94.042969 16.65625 92.453125 14.933594 92.453125 12.699219 "/>
<path style=" stroke:none;fill-rule:nonzero;fill:rgb(13.725281%,12.156677%,12.548828%);fill-opacity:1;" d="M 100.832031 12.699219 C 100.832031 10.46875 102.292969 8.746094 104.570313 8.746094 C 106.511719 8.746094 107.707031 9.867188 107.972656 11.488281 L 106.027344 11.488281 C 105.898438 10.832031 105.386719 10.335938 104.65625 10.335938 C 103.460938 10.335938 102.847656 11.253906 102.847656 12.699219 C 102.847656 14.117188 103.414063 15.066406 104.628906 15.066406 C 105.429688 15.066406 106 14.644531 106.132813 13.796875 L 108.042969 13.796875 C 107.914063 15.386719 106.671875 16.65625 104.671875 16.65625 C 102.308594 16.65625 100.832031 14.933594 100.832031 12.699219 "/>
<path style=" stroke:none;fill-rule:nonzero;fill:rgb(13.725281%,12.156677%,12.548828%);fill-opacity:1;" d="M 110.890625 9.925781 L 110.933594 9.925781 C 111.472656 9.136719 112.085938 8.746094 113.109375 8.746094 C 114.65625 8.746094 115.691406 9.914063 115.691406 11.546875 L 115.691406 16.4375 L 113.707031 16.4375 L 113.707031 11.839844 C 113.707031 11.035156 113.242188 10.46875 112.40625 10.46875 C 111.53125 10.46875 110.890625 11.167969 110.890625 12.191406 L 110.890625 16.4375 L 108.902344 16.4375 L 108.902344 6 L 110.890625 6 Z M 110.890625 9.925781 "/>
<path style=" stroke:none;fill-rule:nonzero;fill:rgb(13.725281%,12.156677%,12.548828%);fill-opacity:1;" d="M 118.539063 11.882813 L 121.867188 11.882813 C 121.808594 10.933594 121.183594 10.277344 120.277344 10.277344 C 119.226563 10.277344 118.714844 10.90625 118.539063 11.882813 M 116.554688 12.6875 C 116.554688 10.46875 118.058594 8.746094 120.246094 8.746094 C 122.65625 8.746094 123.941406 10.585938 123.941406 13.257813 L 118.511719 13.257813 C 118.65625 14.410156 119.296875 15.125 120.421875 15.125 C 121.195313 15.125 121.648438 14.773438 121.867188 14.203125 L 123.824219 14.203125 C 123.546875 15.535156 122.363281 16.65625 120.4375 16.65625 C 117.957031 16.65625 116.554688 14.917969 116.554688 12.6875 "/>
<path style=" stroke:none;fill-rule:nonzero;fill:rgb(13.725281%,12.156677%,12.548828%);fill-opacity:1;" d="M 124.394531 14.015625 L 126.230469 14.015625 C 126.363281 14.875 126.976563 15.253906 127.867188 15.253906 C 128.742188 15.253906 129.238281 14.917969 129.238281 14.394531 C 129.238281 13.679688 128.289063 13.605469 127.269531 13.402344 C 125.925781 13.140625 124.613281 12.773438 124.613281 11.140625 C 124.613281 9.519531 125.953125 8.746094 127.664063 8.746094 C 129.632813 8.746094 130.730469 9.722656 130.875 11.226563 L 129.078125 11.226563 C 128.992188 10.421875 128.480469 10.132813 127.632813 10.132813 C 126.859375 10.132813 126.347656 10.421875 126.347656 10.964844 C 126.347656 11.605469 127.339844 11.664063 128.40625 11.882813 C 129.664063 12.144531 131.050781 12.496094 131.050781 14.246094 C 131.050781 15.75 129.765625 16.65625 127.898438 16.65625 C 125.722656 16.65625 124.507813 15.605469 124.394531 14.015625 "/>
<path style=" stroke:none;fill-rule:nonzero;fill:rgb(13.725281%,12.156677%,12.548828%);fill-opacity:1;" d="M 131.355469 8.949219 L 132.394531 8.949219 L 132.394531 6.613281 L 134.335938 6.613281 L 134.335938 8.949219 L 135.621094 8.949219 L 135.621094 10.261719 L 134.335938 10.261719 L 134.335938 14.234375 C 134.335938 14.789063 134.640625 14.976563 135.078125 14.976563 C 135.328125 14.976563 135.664063 14.964844 135.664063 14.964844 L 135.664063 16.421875 C 135.664063 16.421875 135.210938 16.453125 134.421875 16.453125 C 133.457031 16.453125 132.394531 16.074219 132.394531 14.65625 L 132.394531 10.261719 L 131.355469 10.261719 Z M 131.355469 8.949219 "/>
<path style=" stroke:none;fill-rule:nonzero;fill:rgb(13.725281%,12.156677%,12.548828%);fill-opacity:1;" d="M 138.1875 11.882813 L 141.515625 11.882813 C 141.457031 10.933594 140.832031 10.277344 139.925781 10.277344 C 138.875 10.277344 138.363281 10.90625 138.1875 11.882813 M 136.203125 12.6875 C 136.203125 10.46875 137.707031 8.746094 139.898438 8.746094 C 142.304688 8.746094 143.589844 10.585938 143.589844 13.257813 L 138.160156 13.257813 C 138.304688 14.410156 138.949219 15.125 140.070313 15.125 C 140.84375 15.125 141.296875 14.773438 141.515625 14.203125 L 143.472656 14.203125 C 143.195313 15.535156 142.011719 16.65625 140.085938 16.65625 C 137.605469 16.65625 136.203125 14.917969 136.203125 12.6875 "/>
<path style=" stroke:none;fill-rule:nonzero;fill:rgb(13.725281%,12.156677%,12.548828%);fill-opacity:1;" d="M 146.421875 10.144531 L 146.464844 10.144531 C 146.917969 9.300781 147.429688 8.859375 148.304688 8.859375 C 148.523438 8.859375 148.65625 8.875 148.773438 8.917969 L 148.773438 10.65625 L 148.726563 10.65625 C 147.429688 10.523438 146.496094 11.210938 146.496094 12.789063 L 146.496094 16.4375 L 144.507813 16.4375 L 144.507813 8.949219 L 146.421875 8.949219 Z M 146.421875 10.144531 "/>
<path style=" stroke:none;fill-rule:nonzero;fill:rgb(13.725281%,12.156677%,12.548828%);fill-opacity:1;" d="M 152.261719 6 L 154.378906 6 L 154.378906 16.4375 L 152.261719 16.4375 Z M 152.261719 6 "/>
<path style=" stroke:none;fill-rule:nonzero;fill:rgb(13.725281%,12.156677%,12.548828%);fill-opacity:1;" d="M 157.777344 9.96875 L 157.824219 9.96875 C 158.332031 9.167969 159.019531 8.746094 160.042969 8.746094 C 161.589844 8.746094 162.625 9.914063 162.625 11.546875 L 162.625 16.4375 L 160.640625 16.4375 L 160.640625 11.839844 C 160.640625 11.035156 160.171875 10.46875 159.339844 10.46875 C 158.464844 10.46875 157.824219 11.167969 157.824219 12.191406 L 157.824219 16.4375 L 155.835938 16.4375 L 155.835938 8.949219 L 157.777344 8.949219 Z M 157.777344 9.96875 "/>
<path style=" stroke:none;fill-rule:nonzero;fill:rgb(13.725281%,12.156677%,12.548828%);fill-opacity:1;" d="M 163.382813 14.015625 L 165.222656 14.015625 C 165.355469 14.875 165.96875 15.253906 166.859375 15.253906 C 167.734375 15.253906 168.230469 14.917969 168.230469 14.394531 C 168.230469 13.679688 167.28125 13.605469 166.261719 13.402344 C 164.917969 13.140625 163.601563 12.773438 163.601563 11.140625 C 163.601563 9.519531 164.945313 8.746094 166.65625 8.746094 C 168.625 8.746094 169.71875 9.722656 169.867188 11.226563 L 168.070313 11.226563 C 167.984375 10.421875 167.472656 10.132813 166.625 10.132813 C 165.851563 10.132813 165.339844 10.421875 165.339844 10.964844 C 165.339844 11.605469 166.332031 11.664063 167.398438 11.882813 C 168.65625 12.144531 170.042969 12.496094 170.042969 14.246094 C 170.042969 15.75 168.757813 16.65625 166.886719 16.65625 C 164.714844 16.65625 163.5 15.605469 163.382813 14.015625 "/>
<path style=" stroke:none;fill-rule:nonzero;fill:rgb(13.725281%,12.156677%,12.548828%);fill-opacity:1;" d="M 170.347656 8.949219 L 171.382813 8.949219 L 171.382813 6.613281 L 173.328125 6.613281 L 173.328125 8.949219 L 174.609375 8.949219 L 174.609375 10.261719 L 173.328125 10.261719 L 173.328125 14.234375 C 173.328125 14.789063 173.632813 14.976563 174.070313 14.976563 C 174.320313 14.976563 174.65625 14.964844 174.65625 14.964844 L 174.65625 16.421875 C 174.65625 16.421875 174.203125 16.453125 173.414063 16.453125 C 172.449219 16.453125 171.382813 16.074219 171.382813 14.65625 L 171.382813 10.261719 L 170.347656 10.261719 Z M 170.347656 8.949219 "/>
<path style=" stroke:none;fill-rule:nonzero;fill:rgb(13.725281%,12.156677%,12.548828%);fill-opacity:1;" d="M 175.632813 8.949219 L 177.617188 8.949219 L 177.617188 16.4375 L 175.632813 16.4375 Z M 175.632813 6 L 177.617188 6 L 177.617188 7.78125 L 175.632813 7.78125 Z M 175.632813 6 "/>
<path style=" stroke:none;fill-rule:nonzero;fill:rgb(13.725281%,12.156677%,12.548828%);fill-opacity:1;" d="M 178.464844 8.949219 L 179.5 8.949219 L 179.5 6.613281 L 181.441406 6.613281 L 181.441406 8.949219 L 182.726563 8.949219 L 182.726563 10.261719 L 181.441406 10.261719 L 181.441406 14.234375 C 181.441406 14.789063 181.75 14.976563 182.1875 14.976563 C 182.4375 14.976563 182.769531 14.964844 182.769531 14.964844 L 182.769531 16.421875 C 182.769531 16.421875 182.316406 16.453125 181.53125 16.453125 C 180.566406 16.453125 179.5 16.074219 179.5 14.65625 L 179.5 10.261719 L 178.464844 10.261719 Z M 178.464844 8.949219 "/>
<path style=" stroke:none;fill-rule:nonzero;fill:rgb(13.725281%,12.156677%,12.548828%);fill-opacity:1;" d="M 188.476563 16.4375 L 188.476563 15.5625 L 188.433594 15.5625 C 187.925781 16.25 187.339844 16.644531 186.289063 16.644531 C 184.625 16.644531 183.691406 15.578125 183.691406 13.941406 L 183.691406 8.949219 L 185.664063 8.949219 L 185.664063 13.605469 C 185.664063 14.480469 186.054688 14.964844 186.902344 14.964844 C 187.835938 14.964844 188.40625 14.261719 188.40625 13.269531 L 188.40625 8.949219 L 190.390625 8.949219 L 190.390625 16.4375 Z M 188.476563 16.4375 "/>
<path style=" stroke:none;fill-rule:nonzero;fill:rgb(13.725281%,12.156677%,12.548828%);fill-opacity:1;" d="M 191.238281 8.949219 L 192.273438 8.949219 L 192.273438 6.613281 L 194.214844 6.613281 L 194.214844 8.949219 L 195.5 8.949219 L 195.5 10.261719 L 194.214844 10.261719 L 194.214844 14.234375 C 194.214844 14.789063 194.523438 14.976563 194.960938 14.976563 C 195.207031 14.976563 195.542969 14.964844 195.542969 14.964844 L 195.542969 16.421875 C 195.542969 16.421875 195.089844 16.453125 194.300781 16.453125 C 193.339844 16.453125 192.273438 16.074219 192.273438 14.65625 L 192.273438 10.261719 L 191.238281 10.261719 Z M 191.238281 8.949219 "/>
<path style=" stroke:none;fill-rule:nonzero;fill:rgb(13.725281%,12.156677%,12.548828%);fill-opacity:1;" d="M 198.070313 11.882813 L 201.398438 11.882813 C 201.339844 10.933594 200.714844 10.277344 199.804688 10.277344 C 198.757813 10.277344 198.246094 10.90625 198.070313 11.882813 M 196.085938 12.6875 C 196.085938 10.46875 197.589844 8.746094 199.777344 8.746094 C 202.1875 8.746094 203.472656 10.585938 203.472656 13.257813 L 198.039063 13.257813 C 198.1875 14.410156 198.828125 15.125 199.953125 15.125 C 200.726563 15.125 201.179688 14.773438 201.398438 14.203125 L 203.355469 14.203125 C 203.078125 15.535156 201.894531 16.65625 199.96875 16.65625 C 197.484375 16.65625 196.085938 14.917969 196.085938 12.6875 "/>
<path style=" stroke:none;fill-rule:nonzero;fill:rgb(13.725281%,12.156677%,12.548828%);fill-opacity:1;" d="M 88.992188 27.300781 C 88.992188 25.839844 88.308594 24.847656 87.09375 24.847656 C 85.867188 24.847656 85.195313 25.839844 85.195313 27.300781 C 85.195313 28.757813 85.867188 29.738281 87.09375 29.738281 C 88.308594 29.738281 88.992188 28.757813 88.992188 27.300781 M 83.183594 27.300781 C 83.183594 25.066406 84.773438 23.34375 87.09375 23.34375 C 89.414063 23.34375 91.007813 25.066406 91.007813 27.300781 C 91.007813 29.53125 89.414063 31.253906 87.09375 31.253906 C 84.773438 31.253906 83.183594 29.53125 83.183594 27.300781 "/>
<path style=" stroke:none;fill-rule:nonzero;fill:rgb(13.725281%,12.156677%,12.548828%);fill-opacity:1;" d="M 91.34375 23.546875 L 92.363281 23.546875 L 92.363281 22.875 C 92.363281 21.050781 93.78125 20.410156 95.691406 20.613281 L 95.691406 22.144531 C 94.757813 22.101563 94.351563 22.21875 94.351563 22.992188 L 94.351563 23.546875 L 95.691406 23.546875 L 95.691406 24.917969 L 94.351563 24.917969 L 94.351563 31.035156 L 92.363281 31.035156 L 92.363281 24.917969 L 91.34375 24.917969 Z M 91.34375 23.546875 "/>
<path style=" stroke:none;fill-rule:nonzero;fill:rgb(13.725281%,12.156677%,12.548828%);fill-opacity:1;" d="M 98.671875 20.597656 L 107.066406 20.597656 L 107.066406 22.378906 L 103.925781 22.378906 L 103.925781 31.035156 L 101.808594 31.035156 L 101.808594 22.378906 L 98.671875 22.378906 Z M 98.671875 20.597656 "/>
<path style=" stroke:none;fill-rule:nonzero;fill:rgb(13.725281%,12.156677%,12.548828%);fill-opacity:1;" d="M 107.910156 26.480469 L 111.242188 26.480469 C 111.179688 25.53125 110.554688 24.875 109.648438 24.875 C 108.597656 24.875 108.085938 25.503906 107.910156 26.480469 M 105.925781 27.285156 C 105.925781 25.066406 107.429688 23.34375 109.621094 23.34375 C 112.027344 23.34375 113.3125 25.183594 113.3125 27.855469 L 107.882813 27.855469 C 108.027344 29.007813 108.671875 29.722656 109.792969 29.722656 C 110.570313 29.722656 111.023438 29.371094 111.242188 28.804688 L 113.195313 28.804688 C 112.917969 30.132813 111.738281 31.253906 109.808594 31.253906 C 107.328125 31.253906 105.925781 29.519531 105.925781 27.285156 "/>
<path style=" stroke:none;fill-rule:nonzero;fill:rgb(13.725281%,12.156677%,12.548828%);fill-opacity:1;" d="M 113.867188 27.300781 C 113.867188 25.066406 115.328125 23.34375 117.605469 23.34375 C 119.546875 23.34375 120.742188 24.464844 121.007813 26.085938 L 119.066406 26.085938 C 118.933594 25.429688 118.421875 24.933594 117.691406 24.933594 C 116.496094 24.933594 115.882813 25.851563 115.882813 27.300781 C 115.882813 28.714844 116.453125 29.664063 117.664063 29.664063 C 118.464844 29.664063 119.035156 29.242188 119.167969 28.394531 L 121.078125 28.394531 C 120.949219 29.984375 119.707031 31.253906 117.707031 31.253906 C 115.34375 31.253906 113.867188 29.53125 113.867188 27.300781 "/>
<path style=" stroke:none;fill-rule:nonzero;fill:rgb(13.725281%,12.156677%,12.548828%);fill-opacity:1;" d="M 123.925781 24.527344 L 123.96875 24.527344 C 124.511719 23.738281 125.121094 23.34375 126.144531 23.34375 C 127.691406 23.34375 128.730469 24.511719 128.730469 26.144531 L 128.730469 31.035156 L 126.742188 31.035156 L 126.742188 26.4375 C 126.742188 25.632813 126.277344 25.066406 125.445313 25.066406 C 124.570313 25.066406 123.925781 25.765625 123.925781 26.789063 L 123.925781 31.035156 L 121.941406 31.035156 L 121.941406 20.597656 L 123.925781 20.597656 Z M 123.925781 24.527344 "/>
<path style=" stroke:none;fill-rule:nonzero;fill:rgb(13.725281%,12.156677%,12.548828%);fill-opacity:1;" d="M 131.894531 24.570313 L 131.941406 24.570313 C 132.449219 23.765625 133.136719 23.34375 134.160156 23.34375 C 135.707031 23.34375 136.742188 24.511719 136.742188 26.144531 L 136.742188 31.035156 L 134.757813 31.035156 L 134.757813 26.4375 C 134.757813 25.632813 134.289063 25.066406 133.457031 25.066406 C 132.582031 25.066406 131.941406 25.765625 131.941406 26.789063 L 131.941406 31.035156 L 129.953125 31.035156 L 129.953125 23.546875 L 131.894531 23.546875 Z M 131.894531 24.570313 "/>
<path style=" stroke:none;fill-rule:nonzero;fill:rgb(13.725281%,12.156677%,12.548828%);fill-opacity:1;" d="M 143.414063 27.300781 C 143.414063 25.839844 142.730469 24.847656 141.515625 24.847656 C 140.289063 24.847656 139.617188 25.839844 139.617188 27.300781 C 139.617188 28.757813 140.289063 29.738281 141.515625 29.738281 C 142.730469 29.738281 143.414063 28.757813 143.414063 27.300781 M 137.605469 27.300781 C 137.605469 25.066406 139.195313 23.34375 141.515625 23.34375 C 143.835938 23.34375 145.429688 25.066406 145.429688 27.300781 C 145.429688 29.53125 143.835938 31.253906 141.515625 31.253906 C 139.195313 31.253906 137.605469 29.53125 137.605469 27.300781 "/>
<path style=" stroke:none;fill-rule:nonzero;fill:rgb(13.725281%,12.156677%,12.548828%);fill-opacity:1;" d="M 146.378906 20.597656 L 148.363281 20.597656 L 148.363281 31.035156 L 146.378906 31.035156 Z M 146.378906 20.597656 "/>
<path style=" stroke:none;fill-rule:nonzero;fill:rgb(13.725281%,12.156677%,12.548828%);fill-opacity:1;" d="M 155.121094 27.300781 C 155.121094 25.839844 154.4375 24.847656 153.222656 24.847656 C 151.996094 24.847656 151.324219 25.839844 151.324219 27.300781 C 151.324219 28.757813 151.996094 29.738281 153.222656 29.738281 C 154.4375 29.738281 155.121094 28.757813 155.121094 27.300781 M 149.3125 27.300781 C 149.3125 25.066406 150.902344 23.34375 153.222656 23.34375 C 155.546875 23.34375 157.136719 25.066406 157.136719 27.300781 C 157.136719 29.53125 155.546875 31.253906 153.222656 31.253906 C 150.902344 31.253906 149.3125 29.53125 149.3125 27.300781 "/>
<path style=" stroke:none;fill-rule:nonzero;fill:rgb(13.725281%,12.156677%,12.548828%);fill-opacity:1;" d="M 163.09375 26.964844 C 163.09375 25.867188 162.507813 24.933594 161.3125 24.933594 C 160.304688 24.933594 159.632813 25.722656 159.632813 26.976563 C 159.632813 28.25 160.304688 28.992188 161.324219 28.992188 C 162.582031 28.992188 163.09375 28.074219 163.09375 26.964844 M 157.851563 31.253906 L 159.820313 31.253906 C 159.984375 31.722656 160.40625 32.089844 161.324219 32.089844 C 162.449219 32.089844 162.988281 31.546875 162.988281 30.527344 L 162.988281 29.707031 L 162.945313 29.707031 C 162.507813 30.203125 161.941406 30.585938 160.988281 30.585938 C 159.324219 30.585938 157.691406 29.269531 157.691406 27.007813 C 157.691406 24.773438 159.035156 23.34375 160.933594 23.34375 C 161.867188 23.34375 162.550781 23.707031 163.003906 24.335938 L 163.035156 24.335938 L 163.035156 23.546875 L 164.945313 23.546875 L 164.945313 30.464844 C 164.945313 31.519531 164.609375 32.234375 164.054688 32.746094 C 163.429688 33.328125 162.464844 33.589844 161.355469 33.589844 C 159.3125 33.589844 158.054688 32.714844 157.851563 31.253906 "/>
<path style=" stroke:none;fill-rule:nonzero;fill:rgb(13.725281%,12.156677%,12.548828%);fill-opacity:1;" d="M 166.390625 31.925781 L 167.09375 31.925781 C 167.878906 31.925781 168.203125 31.519531 168.203125 30.90625 C 168.203125 30.496094 168.054688 30.015625 167.632813 28.875 L 165.617188 23.546875 L 167.707031 23.546875 L 168.816406 26.917969 C 169.046875 27.605469 169.296875 28.554688 169.296875 28.554688 L 169.324219 28.554688 C 169.324219 28.554688 169.53125 27.605469 169.761719 26.917969 L 170.816406 23.546875 L 172.816406 23.546875 L 170.203125 31.226563 C 169.632813 32.890625 169.078125 33.488281 167.558594 33.488281 L 166.390625 33.488281 Z M 166.390625 31.925781 "/>
</g>
</svg>
